<svg width="496" height="512" viewBox="0 0 496 512" fill="none" xmlns="http://www.w3.org/2000/svg">
<path d="M248 8C111 8 0 119 0 256C0 393 111 504 248 504C385 504 496 393 496 256C496 119 385 8 248 8ZM248 456C137.7 456 48 366.3 48 256C48 145.7 137.7 56 248 56C358.3 56 448 145.7 448 256C448 366.3 358.3 456 248 456ZM365.8 309.6C355.6 301.1 340.5 302.5 332 312.7C311.2 337.7 280.5 352.1 248 352.1C215.5 352.1 184.8 337.8 164 312.7C155.5 302.5 140.3 301.2 130.2 309.6C120 318.1 118.7 333.2 127.1 343.4C157.1 379.4 201.2 400 248 400C294.8 400 338.9 379.4 368.9 343.4C377.4 333.2 376 318.1 365.8 309.6ZM168 240C185.7 240 200 225.7 200 208C200 190.3 185.7 176 168 176C150.3 176 136 190.3 136 208C136 225.7 150.3 240 168 240ZM328 180C302.3 180 272.1 196.9 268.1 222.1C266.4 233.3 279.6 240.3 287.9 232.9L297.4 224.4C312.2 211.2 343.6 211.2 358.4 224.4L367.9 232.9C376.4 240.3 389.5 233.2 387.7 222.1C383.9 196.9 353.7 180 328 180Z" fill="black"/>
</svg>
